<svg xmlns="http://www.w3.org/2000/svg" width="26.718" height="24.965" viewBox="0 0 26.718 24.965">
  <path id="Icon_simple-hipchat" data-name="Icon simple-hipchat" class="cls-1" d="M21.971,21.518s.115-.081.3-.22a10.886,10.886,0,0,0,4.45-8.593c0-6.362-5.981-11.524-13.356-11.524S0,6.343,0,12.7,5.979,24.234,13.357,24.234a15.32,15.32,0,0,0,2.81-.254l.292-.05a13.9,13.9,0,0,0,7,2.215.717.717,0,0,0,.615-1.229,13.521,13.521,0,0,1-2.1-3.4ZM20.344,16.48A8.635,8.635,0,0,1,13.381,19.7H13.33A8.646,8.646,0,0,1,6.368,16.48a1.266,1.266,0,0,1-.3-.639.545.545,0,0,1,.5-.586.059.059,0,0,1,.023,0,.7.7,0,0,1,.365.124,10.172,10.172,0,0,0,6.406,2.289,9.8,9.8,0,0,0,6.412-2.292.513.513,0,0,1,.348-.136.537.537,0,0,1,.538.529,1.471,1.471,0,0,1-.3.716h-.012Z" transform="translate(0 -1.181)"/>
</svg>
