<svg xmlns="http://www.w3.org/2000/svg" width="26.698" height="27.107" viewBox="0 0 26.698 27.107">
  <defs>
    <style>
      .cls-1 {
        fill: #f8f8f8;
      }
    </style>
  </defs>
  <path id="Icon_simple-circleci" data-name="Icon simple-circleci" class="cls-1" d="M10.19,13.554a3.225,3.225,0,1,1,3.225,3.226A3.224,3.224,0,0,1,10.19,13.554ZM13.415,0A13.569,13.569,0,0,0,.281,10.193a.49.49,0,0,0-.011.136.65.65,0,0,0,.649.651H6.38a.623.623,0,0,0,.584-.376,7.1,7.1,0,1,1,0,5.909.671.671,0,0,0-.584-.379H.919a.65.65,0,0,0-.649.651c0,.042.016.081.016.136A13.554,13.554,0,1,0,13.415,0Z" transform="translate(-0.27)"/>
</svg>
