<svg xmlns="http://www.w3.org/2000/svg" width="66" height="66" viewBox="0 0 66 66">
  <g id="グループ_60" data-name="グループ 60" transform="translate(-494 -139)">
    <circle id="楕円形_5" data-name="楕円形 5" cx="33" cy="33" r="33" transform="translate(494 139)" fill="#f5f5f5"/>
    <g id="Icon_feather-image" data-name="Icon feather-image" transform="translate(508.973 154)">
      <path id="パス_22" data-name="パス 22" d="M7.5,4.5h21a3,3,0,0,1,3,3v21a3,3,0,0,1-3,3H7.5a3,3,0,0,1-3-3V7.5a3,3,0,0,1,3-3Z" fill="none" stroke="#000" stroke-linecap="round" stroke-linejoin="round" stroke-width="3"/>
      <path id="パス_23" data-name="パス 23" d="M15,12.75a2.25,2.25,0,1,1-2.25-2.25A2.25,2.25,0,0,1,15,12.75Z" fill="none" stroke="#000" stroke-linecap="round" stroke-linejoin="round" stroke-width="3"/>
      <path id="パス_24" data-name="パス 24" d="M31.5,22.5,24,15,7.5,31.5" fill="none" stroke="#000" stroke-linecap="round" stroke-linejoin="round" stroke-width="3"/>
    </g>
  </g>
</svg>
